<?xml version="1.0" encoding="utf-8"?>
<!-- Generator: Adobe Illustrator 21.0.0, SVG Export Plug-In . SVG Version: 6.00 Build 0)  -->
<svg version="1.1" id="图层_1" xmlns="http://www.w3.org/2000/svg" xmlns:xlink="http://www.w3.org/1999/xlink" x="0px" y="0px"
	 viewBox="0 0 28 28" style="enable-background:new 0 0 28 28;" xml:space="preserve">
<style type="text/css">
	.st0{fill:#FFDE90;}
</style>
<g>
	<path id="path-1" d="M14,2c6.6,0,12,5.4,12,12s-5.4,12-12,12S2,20.6,2,14S7.4,2,14,2 M14,1C6.8,1,1,6.8,1,14s5.8,13,13,13
		s13-5.8,13-13S21.2,1,14,1L14,1z"/>
	<circle class="st0" cx="14" cy="10" r="3.5"/>
	<path d="M15.5,13.7c1.4-0.6,2.5-2,2.5-3.7c0-2.2-1.8-4-4-4s-4,1.8-4,4c0,1.7,1,3.1,2.5,3.7c-2.8,0.7-5,3.3-5,6.3
		c0,0.3,0.2,0.5,0.5,0.5s0.5-0.2,0.5-0.5c0-3,2.5-5.5,5.5-5.5c3,0,5.5,2.5,5.5,5.5c0,0.3,0.2,0.5,0.5,0.5s0.5-0.2,0.5-0.5
		C20.5,16.9,18.4,14.4,15.5,13.7z M11,10c0-1.7,1.3-3,3-3s3,1.3,3,3s-1.3,3-3,3S11,11.7,11,10z"/>
</g>
</svg>
