<?xml version="1.0" encoding="utf-8"?>
<!-- Generator: Adobe Illustrator 21.0.0, SVG Export Plug-In . SVG Version: 6.00 Build 0)  -->
<svg version="1.1" id="图层_1" xmlns="http://www.w3.org/2000/svg" xmlns:xlink="http://www.w3.org/1999/xlink" x="0px" y="0px"
	 viewBox="0 0 20 20" style="enable-background:new 0 0 20 20;" xml:space="preserve">
<style type="text/css">
	.st0{fill:#FFFFFF;}
</style>
<g>
	<rect x="9" y="13.5" class="st0" width="2" height="1"/>
	<rect x="7" y="5.5" class="st0" width="6" height="7"/>
	<path class="st0" d="M10,1c-5,0-9,4-9,9s4,9,9,9s9-4,9-9S15,1,10,1z M14,14.5c0,0.5-0.5,1-1,1H7c-0.6,0-1-0.4-1-1v-9
		c0-0.5,0.5-1,1-1h6c0.6,0,1,0.4,1,1V14.5z"/>
</g>
</svg>
