<?xml version="1.0" standalone="no"?>
<!DOCTYPE svg PUBLIC "-//W3C//DTD SVG 1.1//EN" "http://www.w3.org/Graphics/SVG/1.1/DTD/svg11.dtd" >
<svg xmlns="http://www.w3.org/2000/svg">
<metadata>
Created by FontForge 20120731 at Mon Jun 19 14:43:00 2017
 By admin
</metadata>
<defs>
<font id="tm-detail-font" horiz-adv-x="1024" >
  <font-face 
    font-family="tm-detail-font"
    font-weight="500"
    font-stretch="normal"
    units-per-em="1024"
    panose-1="2 0 6 3 0 0 0 0 0 0"
    ascent="896"
    descent="-128"
    x-height="792"
    bbox="-1.5 -263 2993 891"
    underline-thickness="0"
    underline-position="0"
    unicode-range="U+0078-F012C"
  />
<missing-glyph 
 />
    <glyph glyph-name=".notdef" 
 />
    <glyph glyph-name=".null" horiz-adv-x="0" 
 />
    <glyph glyph-name="nonmarkingreturn" horiz-adv-x="341" 
 />
    <glyph glyph-name="x" unicode="x" horiz-adv-x="1001" 
d="M281 543q-27 -1 -53 -1h-83q-18 0 -36.5 -6t-32.5 -18.5t-23 -32t-9 -45.5v-76h912v41q0 16 -0.5 30t-0.5 18q0 13 -5 29t-17 29.5t-31.5 22.5t-49.5 9h-133v-97h-438v97zM955 310v-52q0 -23 0.5 -52t0.5 -58t-10.5 -47.5t-26 -30t-33 -16t-31.5 -4.5q-14 -1 -29.5 -0.5
t-29.5 0.5h-32l-45 128h-439l-44 -128h-29h-34q-20 0 -45 1q-25 0 -41 9.5t-25.5 23t-13.5 29.5t-4 30v167h911zM163 247q-12 0 -21 -8.5t-9 -21.5t9 -21.5t21 -8.5q13 0 22 8.5t9 21.5t-9 21.5t-22 8.5zM316 123q-8 -26 -14 -48q-5 -19 -10.5 -37t-7.5 -25t-3 -15t1 -14.5
t9.5 -10.5t21.5 -4h37h67h81h80h64h36q23 0 34 12t2 38q-5 13 -9.5 30.5t-9.5 34.5q-5 19 -11 39h-368zM336 498v228q0 11 2.5 23t10 21.5t20.5 15.5t34 6h188q31 0 51.5 -14.5t20.5 -52.5v-227h-327z" />
    <glyph glyph-name="dianpu" unicode="&#xe603;" horiz-adv-x="1000" 
d="M1252 506q1 -5 1 -9v-9q0 -48 -17 -90.5t-46 -75.5v-585h-1127v586q-29 33 -46 75t-17 90v376h1252v-358zM1064 246q-15 -4 -30 -6t-32 -2q-57 0 -105 23t-83 61q-35 -38 -83 -61t-105 -23q-56 0 -104 23t-83 61q-35 -38 -83 -61t-105 -23q-31 0 -63 8v-384h876v384z" />
    <glyph glyph-name="jiangefuhao" unicode="&#xe611;" 
d="M769 362q27 0 45.5 -18t18.5 -45t-18.5 -46t-45.5 -19h-513q-27 0 -46 19t-19 46t19 45t46 18h513z" />
    <glyph glyph-name="zhengque" unicode="&#xe60d;" horiz-adv-x="1000" 
d="M35 172q-32 34 -36 62t24 57q4 4 13 12t19 16.5t19 16.5t13 12q26 23 51 19.5t43 -23.5q10 -11 26.5 -27.5t33.5 -34.5t33 -34t25 -26q20 -20 46.5 -15.5t49.5 27.5q22 22 53.5 55t68.5 71.5t77 80.5t78 81.5t72 74.5t60 61q14 14 28.5 26t29.5 18.5t30.5 5.5t31.5 -11
q2 -2 11.5 -10.5t20.5 -18.5l20 -20l11 -12q14 -14 15 -29.5t-5 -31t-16.5 -29.5t-20.5 -24q-31 -31 -77 -77.5t-98 -100t-108 -110.5t-107.5 -110t-96 -98.5t-74.5 -74.5q-12 -12 -30.5 -18.5t-38.5 -7t-39.5 4.5t-32.5 17q-27 24 -57.5 54t-60.5 61t-57 59.5t-48 50.5z
" />
    <glyph glyph-name="sousuo" unicode="&#xf012c;" horiz-adv-x="1000" 
d="M908 -9q28 -32 30.5 -56t-18.5 -47q-24 -27 -53 -25.5t-56 23.5l-168 162q-45 -29 -96.5 -45t-108.5 -16q-78 0 -146 29.5t-119 80.5t-80.5 119t-29.5 146t29.5 146t80.5 119t119 80.5t146 29.5t146 -29.5t119 -80.5t80.5 -119t29.5 -146q0 -59 -17 -112t-48 -98l33 -33
q24 -24 50.5 -50t48.5 -49t28 -29zM442 112q52 0 98 19.5t80 53.5t53.5 80t19.5 98t-19.5 98t-53.5 80t-80 53.5t-98 19.5t-98 -19.5t-80 -53.5t-53.5 -80t-19.5 -98t19.5 -98t53.5 -80t80 -53.5t98 -19.5z" />
    <glyph glyph-name="juhuasuan" unicode="&#xe601;" horiz-adv-x="1000" 
d="M96 -21q77 14 134 37.5t95 46.5q45 27 77 58l60 -69q-18 -17 -46.5 -33.5t-63 -30.5t-70.5 -26t-69 -20.5t-59 -13t-40 -4.5q-3 8 -6 17.5t-6 17.5q-4 10 -6 20zM955 198q-27 -24 -58 -45q-26 -18 -60 -35t-70 -24q40 -21 86 -38.5t98 -28.5q-19 -25 -35 -47
q-14 -19 -27.5 -37.5t-21.5 -26.5q-52 22 -94 46.5t-75 49t-57.5 48t-42.5 43.5v-188h-121v297q-14 -1 -27.5 -1.5t-27.5 -1.5l33 -36q-44 -27 -97 -51q-45 -20 -106.5 -40.5t-133.5 -31.5q-3 14 -6 26l-6 22q-3 11 -5 17q31 4 62.5 14t60.5 22.5t54 26.5t45 26
q-29 -2 -53 -2t-41 -1q-20 -1 -37 -1l-15 69q45 0 108 3.5t132 10.5v49q-74 -8 -133 -17t-101 -17q-49 -10 -87 -19l-39 99q23 3 49.5 6t55.5 6v200h-66v74h503v-25q35 5 90.5 10t113.5 4q50 0 86.5 -11t52.5 -30q28 -34 -5 -86q-9 -15 -27 -33.5t-42 -38.5q45 -30 87 -69
q-12 -12 -28.5 -28t-31.5 -30l-36 -34q-21 26 -42.5 49.5t-42.5 43.5q-25 -17 -52 -33t-55 -33q23 6 43.5 12t37.5 13q8 -20 18 -38q8 -16 17.5 -32.5t19.5 -28.5q-38 -8 -87.5 -14t-105.5 -11q31 -40 80 -78q38 12 66.5 32.5t48.5 40.5q23 23 40 49zM417 429h-141v-31
q37 2 72.5 3t68.5 3v25zM417 511h-141v-34h141v34zM417 590h-141v-31h141v31zM524 295q32 5 61.5 9.5t56.5 10.5l-43 85q29 11 56 22.5t50 23.5q-20 16 -36.5 28.5t-28.5 20.5q-14 10 -26 16l47 53q18 -7 39 -17q18 -8 42 -20t52 -27q29 20 41 38q16 20 5 34q-13 16 -50 16
h-4q-42 0 -78.5 -6.5t-63 -14t-42 -14.5t-16.5 -7l-12 44h-50v-183q17 0 30.5 0.5t23.5 0.5h20v-65q-38 0 -74 -3v-45z" />
    <glyph glyph-name="juhuasuan1" unicode="&#xe600;" horiz-adv-x="2850" 
d="M39 -43q120 20 225 80q43 25 75 53l59 -64q-47 -44 -168.5 -82.5t-172.5 -38.5l-12 33q-5 9 -6 19v0zM785 252q-24 31 -84 88q-41 -27 -103 -62q51 14 78 24q5 -12 17 -36q25 -45 36 -58q-65 -12 -187 -24q33 -40 78 -73q55 18 112 70q24 24 39 46l108 -65
q-25 -22 -57 -43q-66 -43 -127 -54q81 -42 179 -63q-25 -34 -34 -44q-7 -9 -24 -31.5t-24 -28.5q-163 67 -262 175v-168h-132v121v149q-30 -2 -40 -2l33 -34q-47 -27 -95 -48q-108 -48 -235 -68l-6 26q-7 26 -11 36q93 13 217 83l-92 -3q-13 -1 -36 -1l-15 65q113 2 236 14
v47q-147 -16 -229 -33q-50 -9 -86 -18l-38 94q18 3 57 7t46 4v189h-65v69h493v-23q98 15 197 14q103 -1 137 -39q28 -31 -4 -81q-21 -31 -69 -68q49 -33 86 -66q-8 -8 -29 -27t-29 -27zM215 426h139v33h-139v-33zM215 533v-30h139v30h-139zM215 351q70 5 139 6v24h-139v-30z
M532 354q49 17 104 43q-25 19 -65 46l-26 16l47 49l38 -16q73 -33 92 -44q26 20 39 36q16 20 5 32q-10 14 -49 15h-4q-48 0 -96.5 -9.5t-73.5 -19.5l-24 -10l-12 41h-49v-173q12 0 29 0.5t23 0.5h20v-61l-72 -3v-43q51 7 115 19zM1865 84v-23v-24.5t-0.5 -22t-2 -23l-4 -20
t-6 -20t-9 -16t-12.5 -14.5q-24 -20 -73.5 -27.5t-85.5 -6.5t-63 5q9 17 27 59q39 0 65.5 16t28.5 53v569h135v-505zM1358 0q45 -32 105 -33q26 -2 52 3l-1 -83q-59 7 -88 13q-102 17 -128 28q-23 7 -34 14q-70 -30 -158 -44l-33 65q75 10 127 33q-41 50 -57 130
q-6 29 -8 69l-2 145l-114 -8l-6 97l117 3l-3 148l139 -1q-1 -13 -1 -42v-102l224 5l6 -75l-229 -16q2 -129 5 -170q4 -59 24 -104q18 34 22 73q5 57 7 122q1 19 1 55l129 1l-13 -94q-11 -82 -21 -127q-14 -62 -62 -105v0zM1668 68h-118v440h118v-440zM1399 473
q-35 0 -59.5 20.5t-24.5 49.5t24.5 49t59.5 20t60 -20t25 -49t-25 -49.5t-60 -20.5v0zM2684 104h165v-65h-165v-141h-133v141h-201q-9 -30 -27.5 -53t-50.5 -43.5t-84.5 -33.5t-123.5 -17l-32 60q89 3 132 24.5t55 62.5h-200v65h208v30h-39h-92v302h106q-21 18 -58 47
q-53 -53 -105 -74l-17 13q-19 13 -43 25q49 34 87 104q19 37 28 64l126 -38l-4 -7l-12 -19q102 14 215 2q-6 -11 -18 -40l-9 -21q-88 11 -158 11q42 -29 55 -40q7 -5 16 -14l-72 -33v-4q24 2 52 6q124 12 129 12q-2 1 -10 5.5t-13 5.5q48 34 85 111q19 38 28 70l125 -45
l-3 -4q-2 -2 -8 -12q122 10 232 3q-12 -23 -19 -43l-8 -25q-103 12 -183 10q12 -8 33 -21.5t27 -18.5l18 -14l-34 -17q54 -8 78.5 -31.5t24.5 -63.5v-47v-16v-32t-2 -29t-5.5 -27.5t-11 -21.5t-18.5 -18t-27.5 -10.5t-38.5 -4.5v-30zM2588 185q44 0 57 29l-412 -10v-19h35
h19h301zM2233 260l418 10v24l-418 -10v-24zM2554 481q-34 -34 -50 -45q16 2 33.5 2.5t39.5 0.5h33q-34 27 -56 42v0zM2489 380q-47 -2 -179 -14q-21 -2 -77 -7v-19l412 11q-11 18 -45.5 25.5t-110.5 3.5v0zM2551 104v30h-189q0 -19 -1 -30h190z" />
    <glyph glyph-name="xiangxia" unicode="&#xe602;" horiz-adv-x="1000" 
d="M493 170q7 -7 16 -7v0q9 0 16 7l204 204q6 6 6 15t-6.5 16t-15.5 7t-16 -7l-187 -188l-177 188q-6 6 -15 6.5t-16 -6t-7 -15.5t6 -16zM515 -120q89 0 170 34.5t139.5 93t93 139.5t34.5 170t-34.5 170t-93 139.5t-139.5 93t-170 34.5t-169.5 -34.5t-139 -93t-93.5 -139.5
t-35 -170t35 -170t93.5 -139.5t139 -93t169.5 -34.5zM515.5 710q106.5 0 196.5 -53t143 -143.5t53 -196.5t-53 -196.5t-143 -143.5t-196.5 -53t-197 53t-143 143.5t-52.5 196.5t52.5 196.5t143 143.5t197 53z" />
    <glyph glyph-name="xia2" unicode="&#xe604;" horiz-adv-x="1000" 
d="M143 193l313 -312q18 -18 44 -18t44 18l313 312q18 19 18 44.5t-18.5 44t-44 18.5t-44.5 -18l-206 -206v599q0 26 -18 44.5t-44 18.5t-44 -18.5t-18 -44.5v-599l-206 206q-19 18 -44.5 18t-44 -18.5t-18.5 -44t18 -44.5z" />
    <glyph glyph-name="shouji" unicode="&#x3462;" horiz-adv-x="1000" 
d="M719 800h-438q-38 0 -65.5 -27.5t-27.5 -66.5v-812q0 -39 27.5 -66.5t65.5 -27.5h438q38 0 65.5 27.5t27.5 66.5v812q0 39 -27.5 66.5t-65.5 27.5zM375 753h250v-31h-250v31zM500 -138q-26 0 -44 18.5t-18 44.5t18 44.5t44 18.5t44 -18.5t18 -44.5t-18 -44.5t-44 -18.5z
M750 50h-500v625h500v-625z" />
    <glyph glyph-name="xiai" unicode="&#xe60f;" horiz-adv-x="1000" 
d="M521 538q33 41 70 74q32 27 72.5 49t84.5 19q62 -5 103.5 -29.5t66 -62t33.5 -85t6 -97.5t-17.5 -95.5t-36 -85t-47.5 -73t-52 -60.5q-40 -41 -83.5 -76.5t-83 -61t-72 -40.5t-50.5 -15q-20 -1 -51 14t-68 40.5t-78 60.5t-81 74q-26 25 -56 58t-56.5 72.5t-45.5 85.5
t-21 98t11 97.5t39 81.5t64 60.5t86 34.5q24 5 48 1.5t47 -12t44 -21.5t40 -27q44 -33 84 -79z" />
    <glyph glyph-name="tianmaologo1" unicode="&#xe606;" horiz-adv-x="1000" 
d="M286 347h-65v-63q0 -23 23 -23v0h64v64q0 22 -22 22zM295 319v-9h-24v24h9q6 0 9 -0.5t4.5 -4t1.5 -10.5zM258 334v-24h-24v24h24zM234 288v10h24v-25h-7q-10 0 -13.5 3t-3.5 12zM295 273h-24v25h24v-25v0v0zM176 397v-14q20 0 23 -17v-1l-23 -14v-14q17 11 23 14v-22v-3
v3l-23 -14v-14q17 10 23 14v-1v-7q0 -14 -5.5 -22t-11.5 -9l-6 -2v-13q7 0 14 2.5t14.5 14t7.5 30.5v55q-1 33 -36 34zM295 382v15h-13v-15h-35v15h-12v-15h-14v-13h14v-13h12v13h35v-13h13v13h13v13h-13zM156 349h-58v34h52v14h-115v-14h50v-34h-56v-13h54q-1 -7 -4.5 -16
t-17 -24t-32.5 -22v-13q19 4 36 19t26 36q10 -22 28 -36.5t37 -18.5v13q-19 7 -33 22.5t-18 24t-6 15.5h57v13zM340 347v-14h35v-72v0h14v72h34v14h-83zM555 296l12 29q2 5 6 5l6 -5l8 -19q-20 -1 -32 -10zM620 261l-29 71q-5 14 -18 14q-6 0 -10.5 -3.5t-6.5 -6.5l-1 -4
l-28 -71h14q15 32 50 32l13 -32h16zM656 275q-8 0 -11.5 3t-3.5 12v56h-14v-14v-49q0 -10 6 -16t16 -6h18v14h-11zM705 275q-8 0 -11.5 3t-3.5 12v56h-14v-14v-49q0 -10 6 -16t16 -6h18v14v0h-11zM476 319q15 0 26 6v0v-64h14v76q0 7 -5 9t-10 -2q-12 -10 -25 -10h-1v0v0
q-14 0 -26 10q-5 4 -10 2t-5 -9v-29v-47h14v64v0q11 -6 27 -6h1zM745 268q0 -7 -7 -7t-7 7t7 7t7 -7zM888.5 282q-7.5 -7 -18.5 -7t-18 7t-7 22t7 22t18 7t18 -7q8 -8 8 -22q0 -15 -7.5 -22zM904.5 280q4.5 9 4.5 25q0 19 -11 30t-28 11q-15 0 -26 -9q-13 -11 -13 -33
q0 -21 11 -32t28 -11q11 0 20.5 5t14 14zM961 319q15 0 26 6v0v-64h14v31.5v29.5v15q0 7 -5 9t-10 -2q-12 -10 -25 -10h-1v0v0q-14 0 -26 10q-5 4 -10 2t-5 -9v-76h14v64v0q11 -6 27 -6h1zM808 284l-2 -2q-7 -7 -18 -7t-18 7t-7 22t7 22t18 7t18 -7l2 -2h16q-3 7 -8 11
q-11 11 -28 11q-15 0 -26 -9q-13 -11 -13 -33q0 -21 11 -32t28 -11q11 0 20.5 5t13.5 14l2 4h-16z" />
    <glyph glyph-name="lianjie" unicode="&#xe610;" horiz-adv-x="1000" 
d="M983 542l-241 241q-17 17 -40.5 17t-40.5 -17l-242 -241q-16 -17 -16 -40.5t16 -40.5l41 -40l241 241l161 -161l-241 -241l40 -41q17 -16 40.5 -16t40.5 16l241 242q17 17 17 40.5t-17 40.5v0zM540 179l-241 -241l-161 161l241 241l-40 41q-17 16 -40.5 16t-40.5 -16
l-241 -242q-17 -17 -17 -40.5t17 -40.5l241 -241q17 -17 40.5 -17t40.5 17l242 241q16 17 16 40.5t-16 40.5l-41 40v0zM339 139q17 -17 40.5 -17t39.5 17l242 242q17 16 17 39.5t-17 40.5t-40.5 17t-39.5 -17l-242 -242q-17 -16 -17 -39.5t17 -40.5z" />
    <glyph glyph-name="yuan" unicode="&#xe60a;" horiz-adv-x="1000" 
d="M500 300zM75 300v0q0 115 57 213t155 155t213 57t213 -57t155 -155t57 -213v0q0 -115 -57 -213t-155 -155t-213 -57t-213 57t-155 155t-57 213z" />
    <glyph glyph-name="shizhong" unicode="&#x3433;" horiz-adv-x="1000" 
d="M515 566zM485 565.5v1.5q0 12 9 21t21.5 9t21 -9t8.5 -21v-1.5v-0.5q0 -13 -8.5 -21.5t-21 -8.5t-21.5 8.5t-9 21.5v0.5zM515 67zM485 67v1q0 12 9 21t21.5 9t21 -9t8.5 -21v-1v-1q0 -12 -8.5 -21t-21 -9t-21.5 9t-9 21v1zM266 317zM236 317.5v1.5q0 12 9 21t21.5 9
t21 -9t8.5 -21v-1.5v-1.5q0 -12 -8.5 -21t-21 -9t-21.5 9t-9 21v1.5zM763 317zM733 317.5v1.5q0 12 9 21t21 9t21 -9t9 -21v-1.5v-1.5q0 -12 -9 -21t-21 -9t-21 9t-9 21v1.5zM619.5 511.5q-11.5 5.5 -23 1.5t-17.5 -15l-77 -173l-69 36q-10 6 -22 3t-18.5 -14t-3 -23
t14.5 -18l96 -52q7 -4 15 -4q19 0 28 17l90 202q6 11 2 22.5t-15.5 17zM515.5 753q-88.5 0 -169.5 -34.5t-139 -93t-92.5 -139t-34.5 -169t34.5 -169t92.5 -139t139 -93t169.5 -34.5t169 34.5t139 93t93 139t34.5 169t-34.5 169t-93 139t-139 93t-169 34.5zM515 -54
q-101 0 -186.5 50t-135 135.5t-49.5 186t49.5 186t135 135.5t186.5 50t186.5 -50t135 -135.5t49.5 -186t-49.5 -186t-135 -135.5t-186.5 -50z" />
    <glyph glyph-name="songhuoruhu" unicode="&#x3435;" horiz-adv-x="1000" 
d="M515 753q-89 0 -170 -34.5t-139.5 -93t-93 -139.5t-34.5 -170t34.5 -169.5t93 -139t139.5 -93.5t170 -35t170 35t139.5 93.5t93 139t34.5 169.5t-34.5 170t-93 139.5t-139.5 93t-170 34.5zM515 -56q-101 0 -187 49.5t-135.5 135.5t-49.5 187.5t49.5 187t135.5 135.5
t187 50t187 -50t136 -135.5t50 -187t-50 -187.5t-136 -135.5t-187 -49.5zM507 240v-184l247 162v184zM738 230l-214 -140v140l214 141v-141zM268 402v-184l246 -162v184zM284 371l214 -141v-140l-214 140v141zM311 323l162 -105v-78l-162 106v77zM515 566h-147l67 -53
l-167 -111l243 -162l-220 150l101 71l217 -156l145 97zM401 556h99l218 -153h-99z" />
    <glyph glyph-name="shunfeng" unicode="&#x3436;" horiz-adv-x="1000" 
d="M515 753q-89 0 -170 -34.5t-139.5 -93t-93 -139.5t-34.5 -170t34.5 -169.5t93 -139t139.5 -93.5t170 -35t170 35t139.5 93.5t93 139t34.5 169.5t-34.5 170t-93 139.5t-139.5 93t-170 34.5zM515 -56q-101 0 -187 49.5t-135.5 135.5t-49.5 187.5t49.5 187t135.5 135.5
t187 50t187 -50t136 -135.5t50 -187t-50 -187.5t-136 -135.5t-187 -49.5zM473 415v60q-12 12 -46 18.5t-71 4t-65.5 -26t-28.5 -66.5q0 -32 17 -56t42 -37.5t50 -24.5t42.5 -24t17.5 -29q0 -33 -27 -46t-65 -2.5t-70 40.5v-70q23 -20 61.5 -27t74.5 0t63 33t27 67
q0 31 -17 55.5t-41 39.5t-48 28t-41 26.5t-17 27.5q0 10 7 18.5t20.5 13.5t30.5 5.5t39 -6.5t45 -22zM537 121v350q5 2 13 5t32.5 9t49 8t58.5 -3t64 -19v-62q-3 2 -10 4.5t-26 7.5t-37.5 6.5t-41 -2.5t-40.5 -16v-288h-62zM685 316zM652 316.5v0.5q0 14 9.5 23.5t23.5 9.5
t23.5 -9.5t9.5 -23.5v-0.5v-1.5q0 -13 -9.5 -23t-23.5 -10t-23.5 10t-9.5 23v1.5z" />
    <glyph glyph-name="wuyoutuihuanhuo" unicode="&#x3437;" horiz-adv-x="1000" 
d="M515 753q-89 0 -170 -34.5t-139.5 -93t-93 -139.5t-34.5 -170t34.5 -169.5t93 -139t139.5 -93.5t170 -35t170 35t139.5 93.5t93 139t34.5 169.5t-34.5 170t-93 139.5t-139.5 93t-170 34.5zM515 -56q-101 0 -187 49.5t-135.5 135.5t-49.5 187.5t49.5 187t135.5 135.5
t187 50t187 -50t136 -135.5t50 -187t-50 -187.5t-136 -135.5t-187 -49.5zM271 334l233 211v-377h-114v166h-119zM759 300l-233 -211v377h114v-166h119zM640 469h-113l-1 39h113zM640 512h-113l-1 39h113zM391 153h113v-28h-113v28zM391 110h113v-28h-113v28z" />
    <glyph glyph-name="quanguolianbao" unicode="&#x3438;" horiz-adv-x="1000" 
d="M515 753q-89 0 -170 -34.5t-139.5 -93t-93 -139.5t-34.5 -170t34.5 -169.5t93 -139t139.5 -93.5t170 -35t170 35t139.5 93.5t93 139t34.5 169.5t-34.5 170t-93 139.5t-139.5 93t-170 34.5zM515 -56q-101 0 -187 49.5t-135.5 135.5t-49.5 187.5t49.5 187t135.5 135.5
t187 50t187 -50t136 -135.5t50 -187t-50 -187.5t-136 -135.5t-187 -49.5zM324 212q11 1 29 4v235h-25v28h167v-28h-29v-215q18 4 35 7q1 -16 3 -27q-18 -4 -38 -8v-81h-28v75q-50 -10 -107 -21zM382 395h56v56h-56v-56zM382 312h56v57h-56v-57zM438 231v55h-56v-65zM480 326
h89q2 28 1 70h-79v28h104q17 28 46 82l30 -14q-24 -38 -45 -68h65v-28h-91q0 -42 -1 -70h105v-29h-101q30 -92 107 -137q-14 -14 -25 -29q-69 52 -97 130q-21 -83 -94 -134q-12 15 -22 25q81 51 95 145h-87v29zM505 490l23 16q23 -26 43 -58l-25 -17q-16 27 -41 59z" />
    <glyph glyph-name="gouwuche" unicode="&#xe613;" horiz-adv-x="1000" 
d="M517.5 753q-88.5 0 -169.5 -35t-139.5 -93t-93 -139t-34.5 -169.5t34.5 -169.5t93 -139.5t139.5 -93t169.5 -34.5t169.5 34.5t139.5 93t93 139.5t34.5 169.5t-34.5 169.5t-93 139t-139.5 93t-169.5 35zM399 93q-14 0 -24 10t-10 23.5t10 23.5t24 10t23.5 -10t9.5 -23.5
t-9.5 -23.5t-23.5 -10zM604 84q-19 0 -32.5 13t-13.5 32.5t13.5 33t32.5 13.5t32.5 -13.5t13.5 -33t-13.5 -32.5t-32.5 -13zM808 491q0 -10 -7.5 -16.5t-17.5 -6.5h-79l-90 -256q-6 -17 -24 -16h-2h-242q-10 0 -17.5 7t-7.5 17v7q0 10 7.5 17t17.5 7h224l11 34h-276
q-10 0 -16.5 6.5t-6.5 16.5v7q0 10 6.5 17t16.5 7h295h1l11 33h-332q-10 0 -17 7t-7 17v7q0 10 7 16.5t17 6.5h352l28 81q5 15 21 16h4h98q10 0 17.5 -7t7.5 -16v-9z" />
    <glyph glyph-name="shangyouxuan" unicode="&#x3434;" horiz-adv-x="1000" 
d="M556 541v212l327 -328l-327 -327v216q-79 2 -139.5 -12t-97.5 -39t-59 -60.5t-27.5 -75t0 -83t20 -84.5t35.5 -80q-59 64 -94.5 139.5t-44.5 149.5t12.5 143t68.5 120.5t131 81.5t195 27z" />
    <glyph glyph-name="facebook" unicode="&#xe60e;" 
d="M682 200h101q15 -1 16 13q3 20 8 58.5t7 55.5l-1 10h-130v111q3 37 58 38h79v125q-61 4 -64 4q-76 -1 -99 -7q-53 -13 -84.5 -54.5t-32.5 -97.5v-118q-18 -1 -19 -1h-82q-9 1 -13 -2.5t-4 -11.5q1 -52 1 -109q-1 -15 15 -14h101v-344h-475v891h891v-891q-14 -1 -15 -1
h-243q-9 0 -13 2.5t-4 12.5v322z" />
    <glyph glyph-name="fenxiang" unicode="&#xe607;" 
d="M805 143q-73 0 -117 -58l-307 183q6 22 6 42q0 4 -1 13l307 185q44 -51 112 -51q60 0 103 42.5t43 103.5t-43 103.5t-103.5 42.5t-103.5 -42.5t-43 -103.5q0 -23 8 -46l-305 -158q-23 36 -60 57.5t-81 21.5q-70 0 -119 -49t-49 -118.5t49 -118.5t119 -49q74 0 124 56
l319 -165q-5 -19 -5 -37q0 -61 43 -103.5t103.5 -42.5t103.5 42.5t43 103.5t-43 103.5t-103 42.5z" />
    <glyph glyph-name="jian" unicode="&#xe616;" 
d="M63 323q0 -32 22.5 -54.5t54.5 -22.5h743q32 0 54.5 22.5t22.5 54.5v0q-1 32 -23.5 54.5t-54.5 22.5h-743q-32 0 -54.5 -22.5t-21.5 -54.5v0z" />
    <glyph glyph-name="guanbigongjulan" unicode="&#xe60b;" 
d="M990 -5l-302 303l302 302q36 36 36 87t-35.5 86.5t-86.5 35.5t-87 -36l-302 -302l-303 302q-36 36 -87 36t-86.5 -35.5t-35.5 -86.5t36 -87l302 -302l-302 -303q-36 -36 -36 -87t35.5 -86.5t86.5 -35.5t87 36l303 302l302 -302q36 -36 87 -36t86.5 35.5t35.5 86.5t-36 87
z" />
    <glyph glyph-name="no-class" unicode="&#xf0013;" 
d="M512 812q-139 0 -257 -68.5t-186.5 -186.5t-68.5 -257t68.5 -257t186.5 -186.5t257 -68.5t257 68.5t186.5 186.5t68.5 257t-68.5 257t-186.5 186.5t-257 68.5zM512 -148q-122 0 -225 60t-163 163t-60 225t60 225t163 163t225 60t225 -60t163 -163t60 -225t-60 -225
t-163 -163t-225 -60zM384 556l384 -256l-384 -256v512z" />
    <glyph glyph-name="no-class1" unicode="&#xf0069;" 
d="M823 611q-63 64 -145.5 96.5t-165.5 32.5t-165.5 -32.5t-145.5 -96.5q-85 -84 -115 -197.5t0 -227t115 -197.5q63 -63 145.5 -96t165.5 -33t165.5 33t145.5 96q85 84 115 197.5t0 227t-115 197.5zM760 143q3 -2 3 -6t-3 -7l-78 -78q-3 -3 -7 -3t-6 3l-157 157l-157 -157
q-3 -3 -6.5 -3t-6.5 3l-78 79q-3 2 -3 6t3 6l157 157l-157 157q-3 2 -3 6t3 7l79 78q2 3 6 3t6 -3l157 -156l7 7l150 149q3 3 6.5 3t6.5 -3l78 -78q3 -3 3 -7t-3 -6l-156 -157z" />
    <glyph glyph-name="smzdmiconfontnew" unicode="&#xe60c;" 
d="M1003 488h-823q-8 0 -13.5 -5t-5.5 -12v-288l-161 -126q124 37 181 45h822q8 0 13.5 5t5.5 12v352q0 7 -5.5 12t-13.5 5zM472 195h-26l-100 150v-150h-24v190h26l100 -149v149h24v-190zM657 195h-142v190h138v-22h-113v-59h105v-22h-105v-65h117v-22zM867 195h-24
l-40 145q-5 18 -6 22q-3 -13 -6 -22l-40 -145h-26l-50 190h25l29 -125q5 -19 9 -39q7 31 8 36l36 128h31l27 -96q10 -36 15 -68q4 18 9 42l30 122h26z" />
    <glyph glyph-name="jiantouashang" unicode="&#xe62c;" 
d="M960 57h-184l-263 299l-262 -298l-187 -1l449 485z" />
    <glyph glyph-name="jiantouaxia" unicode="&#xe62b;" 
d="M64 542h185l262 -299l263 299h186l-448 -485z" />
    <glyph glyph-name="huopiaotongxingxiao" unicode="&#xe605;" 
d="M512 698q-111 0 -205.5 -55t-149.5 -149.5t-55 -205.5t55 -205.5t149.5 -149.5t205.5 -55t205.5 55t149.5 149.5t55 205.5t-55 205.5t-149.5 149.5t-205.5 55zM512 -58q-94 0 -173.5 46.5t-126 126t-46.5 173.5t46.5 173.5t126 126t173.5 46.5t173.5 -46.5t126 -126
t46.5 -173.5t-46.5 -173.5t-126 -126t-173.5 -46.5zM459 398h-90v-88h298v88h-91v35h111v23h-338v-23h110v-35zM459 331h-65v46h65v-46zM576 377h66v-46h-66v46zM484 433h66v-35h-66v35zM484 377h66v-46h-66v46zM570 180q67 -31 106 -56l17 26q-74 36 -108 52zM369 283h300
v-22h-300v22zM342 211h166v-43q2 -21 -24 -20q-33 0 -42 2q0 -4 2 -10q3 -15 3 -19q23 0 39 1q49 0 49 44v45h159v22h-352v-22v0zM439 203q-44 -31 -102 -55q1 -1 5 -6l10 -20q8 5 51 30q37 20 56 31z" />
    <glyph glyph-name="dianpu1" unicode="&#xe623;" 
d="M840 657l-7 11h-613l-7 -9q-55 -71 -86 -134.5t-36.5 -110t-1.5 -77t16 -55.5q20 -41 58 -65.5t81 -24.5h5q86 3 146 65q53 -61 133 -61q83 0 136 64q81 -66 153 -66q62 0 105 50q26 30 32.5 72.5t-4.5 88.5t-25.5 87t-36.5 81.5t-31.5 57t-16.5 26.5zM244 240
q-27 0 -53.5 16.5t-42.5 47.5q-9 19 -12 44t2.5 64t32 93t73.5 115h563q17 -27 34 -59t34 -74t26 -79.5t6 -73.5t-21 -58q-29 -34 -69 -34q-27 0 -59.5 15.5t-48.5 28t-29 24.5v166h-48v-179q-39 -53 -104 -53q-29 0 -54.5 13t-36 23.5t-17.5 22.5v173h-48v-172
q-9 -12 -21.5 -23.5t-41.5 -25.5t-62 -15h-3v0zM804 -48q-10 -24 -28 -32h-496q-8 0 -14.5 2.5t-11.5 7t-9 9.5t-6 10t-4 9.5t-2.5 7l-0.5 2.5v156h-48v-160q6 -32 30 -62t66 -30l506 1q6 1 14.5 5t25 20.5t25.5 41.5l1 188h-48v-176z" />
    <glyph glyph-name="xiangshang" unicode="&#xe608;" 
d="M915 340l-342 342q-20 20 -48.5 20t-48.5 -20l-341 -342q-20 -20 -20 -48.5t20 -48.5t48 -20t48 20l225 225v-495q0 -28 20 -48t48.5 -20t48.5 20t20 48v495l225 -225q20 -20 48.5 -20t48.5 20t20 48.5t-20 48.5v0zM915 340z" />
    <glyph glyph-name="shoucang" unicode="&#xe617;" 
d="M511.5 711q15.5 0 21.5 -14l102 -214q9 -20 31 -23l234 -36q14 -2 19 -15q4 -13 -5 -22l-172 -174q-15 -15 -11 -37l39 -241q3 -13 -9 -22q-6 -4 -14 -4q-7 0 -12 3l-204 112q-9 4 -19.5 4t-19.5 -4l-204 -112q-6 -3 -12 -3q-8 0 -14 4q-12 9 -10 22l40 241q3 22 -12 37
l-171 174q-10 9 -6 22q5 13 20 15l234 36q21 3 31 23l101 214q7 14 22.5 14zM511 752q-19 0 -35 -10t-24 -27l-101 -214l-234 -36q-18 -2 -32 -13.5t-20 -29.5q-13 -37 15 -65l171 -174l-39 -241q-7 -40 26 -63q17 -12 38 -12q16 0 31 8l204 112l204 -112q15 -8 32 -8
q20 0 37 12q33 23 27 63l-40 241l172 174q27 28 15 65q-6 18 -20 29.5t-32 13.5l-234 36l-102 214q-8 17 -24 27t-35 10v0v0zM511 752z" />
    <glyph glyph-name="jiantouyou" unicode="&#xe61a;" 
d="M315 752l-59 -60l392 -392l-392 -392l59 -60l453 452z" />
    <glyph glyph-name="shoucang1" unicode="&#xe609;" 
d="M513 716q-17 0 -27 -11q-10 -10 -15 -24l-103 -236l-275 -25q-10 -2 -17 -9q-9 -7 -10.5 -19t5.5 -25q8 -11 19 -21l10 -9l22 -19q22 -19 31 -26l36 -30q30 -26 94 -80l-30 -124q-6 -22 -12 -47q-7 -27 -11 -42q-4 -20 -8 -32l-4 -17q-2 -8 1.5 -15.5t11.5 -13.5
q7 -5 17 -6q2 -1 4 -1q7 0 14 4q5 2 17 9q11 5 31 17q10 6 40 23q27 16 44 25q46 26 115 66l232 -134l13 -5q8 -3 13 -3q13 0 24 6t8 23q-1 3 -4 17l-6 33q-5 22 -9 44q-4 20 -10 47q-15 72 -26 127l184 164q12 14 19 22q8 9 8 22t-7 19q-8 6 -25 11l-276 25l-99 237
q-2 3 -5 9q-4 6 -8 10q-4 6 -11 10t-15 4v0z" />
    <glyph glyph-name="jiantoushang" unicode="&#xe614;" 
d="M546 403l-206 -206h116l90 89l89 -89h116l-205 206v0z" />
    <glyph glyph-name="jiantouxia" unicode="&#xe615;" 
d="M546 197l205 206h-116l-89 -89l-90 89h-116l206 -206v0zM546 197z" />
    <glyph glyph-name="guanbi" unicode="&#xe622;" 
d="M574 313l289 280q10 10 10 24.5t-10.5 24.5t-25 10t-25.5 -10l-289 -280l-289 280q-10 10 -25 10t-25.5 -10t-10.5 -24.5t10 -24.5l289 -280l-289 -280q-10 -10 -10 -24.5t10.5 -24.5t25.5 -10t25 10l289 280l289 -280q11 -10 25.5 -10t25 10t10.5 24.5t-10 24.5z" />
    <glyph glyph-name="gouwuche2" unicode="&#xe612;" 
d="M767 34h-384q-20 0 -36.5 12.5t-22.5 31.5l-116 405h-144v123h190q21 0 37.5 -12.5t21.5 -32.5l24 -83h521q31 0 49 -24.5t10 -53.5l-91 -321q-5 -20 -21.5 -32.5t-37.5 -12.5v0zM430 157h291l56 198h-404zM386 -94q0 -27 18.5 -45t44.5 -18t44.5 18t18.5 45v0v0
q0 26 -18.5 44t-44.5 18t-44.5 -18t-18.5 -44v0zM638 -94q0 -27 18.5 -45t44.5 -18t44.5 18t18.5 45v0q0 26 -18.5 44t-44.5 18t-44.5 -18t-18.5 -44v0z" />
    <glyph glyph-name="down-thin" unicode="&#xe619;" 
d="M846 439l-334 -334l-33 33l334 333zM511 106l-333 332l33 33l333 -332z" />
    <glyph glyph-name="wangwang" unicode="&#xe624;" 
d="M590.5 405q-13.5 0 -23 -22.5t-9.5 -55t9.5 -55t23 -22.5t23 22.5t9.5 55t-9.5 55t-23 22.5zM765.5 405q-13.5 0 -23.5 -22.5t-10 -55t10 -55t23.5 -22.5t23 22.5t9.5 55t-9.5 55t-23 22.5zM525 694q-2 0 -6 -0.5t-6 -0.5l1 1q-141 42 -261 66q13 -70 21 -147
q-81 -57 -127.5 -143.5t-46.5 -186.5q0 -111 57 -205.5t155 -149.5t213.5 -55t213.5 55t154.5 149.5t56.5 206t-56.5 206t-154.5 149.5t-214 55zM525.5 -83q-103.5 0 -191.5 49t-139 133.5t-51 184t51 183.5t139 133t191.5 49t191.5 -49t139 -133t51 -183.5t-51 -184
t-139 -133.5t-191.5 -49z" />
    <glyph glyph-name="dianpushouye" unicode="&#xe625;" 
d="M747 516v0h-36h-4h-95h-43h-118h-42h-100h-36q-3 0 -7 -0.5t-10.5 -6.5t-6.5 -18v-166q0 -29 20 -52v-178q0 -17 12 -28.5t28 -11.5h402q17 0 28.5 11.5t11.5 28.5v178q20 23 20 52v160v6q0 12 -6 18t-12 7h-6zM450 476h120v-130q0 -25 -17.5 -43t-42.5 -18t-42.5 18
t-17.5 43v130zM289 346v130h61h60v-130q0 -25 -17.5 -43t-42.5 -18t-43 18t-18 43zM711 135q0 -17 -12 -28.5t-28 -11.5h-321q-17 0 -29 11.5t-12 28.5v113q11 -3 21 -3h40q36 0 60 28q24 -28 60 -28h40q36 0 60 28q25 -28 61 -28h40q9 0 20 3v-113zM731 346
q0 -25 -17.5 -43t-42.5 -18t-42.5 18t-17.5 43v130h60h60v-130zM510 744q-90 0 -171.5 -35t-140.5 -94.5t-94 -141t-35 -171.5t35 -171.5t94 -141t140.5 -94t171.5 -34.5t172 34.5t141 94t94 141t35 171.5t-35 171.5t-94 141t-141 94.5t-172 35zM510.5 -101
q-109.5 0 -202.5 54t-147 147t-54 202.5t54 202t147 146.5t202.5 54t202 -54t146.5 -146.5t54 -202t-54 -202.5t-146.5 -147t-202 -54z" />
    <glyph glyph-name="shoucangxuanzhong" unicode="&#xe618;" 
d="M510 707q-18 0 -33.5 -9t-23.5 -25l-97 -197l-223 -33q-18 -2 -31 -13t-19 -27q-12 -34 14 -60l164 -160l-38 -222q-6 -36 26 -58q16 -10 36 -10q15 0 30 7l195 103l195 -103q14 -7 30 -7q19 0 35 10q32 22 26 58l-38 222l164 160q26 26 14 60q-5 16 -18.5 27t-30.5 13
l-224 33l-97 197q-8 16 -23 25t-33 9v0z" />
    <glyph glyph-name="fanhui1" unicode="&#xe62d;" 
d="M730 -8l-394 392l394 392q8 7 8.5 17.5t-6 17t-17 6t-18.5 -8.5l-406 -404q-8 -8 -8 -20t9 -20l405 -404q8 -8 18.5 -8.5t17 6t6 17t-8.5 17.5z" />
    <glyph glyph-name="fanhui2" unicode="&#xe62e;" 
d="M289.5 -42.5q6.5 -6.5 16.5 -6t18 8.5l406 404q9 8 8 20q1 12 -8 20l-406 404q-8 8 -18 8.5t-16.5 -6t-6 -17t8.5 -17.5l394 -392l-394 -392q-8 -7 -8.5 -17.5t6 -17z" />
    <glyph glyph-name="zhengpinbaozhang" unicode="&#xe61c;" 
d="M512 789q99 0 189.5 -39t156 -104.5t104.5 -156t39 -189.5t-39 -189.5t-104.5 -156t-156 -104.5t-189.5 -39t-189.5 39t-156 104.5t-104.5 156t-39 189.5t39 189.5t104.5 156t156 104.5t189.5 39zM512 812q-139 0 -257 -68.5t-186.5 -186.5t-68.5 -257t68.5 -257
t186.5 -186.5t257 -68.5t257 68.5t186.5 186.5t68.5 257t-68.5 257t-186.5 186.5t-257 68.5v0zM240 138h89v292h47v-292h139v370h-250v43h497v-43h-200v-143h181v-42h-181v-185h222v-43h-544v43z" />
    <glyph glyph-name="jia" unicode="&#xe627;" 
d="M903 244h-336v-336q0 -23 -16.5 -39t-39.5 -16t-39.5 16t-16.5 39v336h-336q-23 0 -39.5 16.5t-16.5 39.5t16.5 39.5t39.5 16.5h336v336q0 23 16.5 39.5t39.5 16.5t39.5 -16.5t16.5 -39.5v-336h336q23 0 39.5 -16.5t16.5 -39.5t-16.5 -39.5t-39.5 -16.5z" />
    <glyph glyph-name="02" unicode="&#xe61b;" 
d="M90 544l422 244l422 -244v-488l-422 -244l-422 244v488z" />
    <glyph glyph-name="biao" unicode="&#xe626;" 
d="M512 812q-104 0 -199 -40.5t-163 -109t-108.5 -163t-40.5 -199t40.5 -199t108.5 -163t163 -109t199 -40.5t199 40.5t163 109t108.5 163t40.5 199t-40.5 199t-108.5 163t-163 109t-199 40.5zM512 -147q-91 0 -174 35.5t-143 95.5t-95 142.5t-35 174t35 174t95 142.5
t143 95.5t174 35.5t174 -35.5t143 -95.5t95 -142.5t35 -174t-35 -174t-95 -142.5t-143 -95.5t-174 -35.5zM470 642h82v-420h-82v420zM470 304h351v-82h-351v82z" />
    <glyph glyph-name="baoji" unicode="&#xe628;" 
d="M996 465h-96q-6 0 -13 -4l-43 130q-10 54 -45 82t-85 28h-405q-53 0 -87 -30.5t-43 -78.5l-43 -131q-7 4 -14 4h-95q-11 0 -19 -8t-8 -19v-23q0 -11 8 -19t19 -8l36 -6q-18 -35 -18 -78l-13 -153v-14v-8v-185q0 -20 13.5 -34t33.5 -14h73q19 0 33 14t14 34v59h625v-59
q0 -20 14 -34t34 -14h72q20 0 34 14t14 34v185q0 4 -1 8q1 8 1 14l-14 153q0 43 -18 78l36 6q11 0 18.5 8t7.5 19v23q0 11 -7.5 19t-18.5 8zM211 492l32 85v2q1 6 3.5 10.5t4.5 7t6 7t7 8.5h496q3 -4 7 -9t6 -7t4 -7t3 -10l32 -87l12 -47q-2 -25 -26.5 -43t-51.5 -18h-468
q-27 0 -52 18t-27 43zM233 91q-30 0 -51 21t-21 51t21 51t51 21t51 -21t21 -51t-21 -51t-51 -21zM636 144v0q0 -9 -6.5 -15t-15.5 -6h-202q-9 0 -15 6t-6 15v60q0 9 6 15.5t15 6.5h202q9 0 15.5 -6.5t6.5 -15.5v-60zM790 91q-30 0 -51 21t-21 51t21 51t51 21t51 -21t21 -51
t-21 -51t-51 -21z" />
    <glyph glyph-name="31fanhui1" unicode="&#xe631;" 
d="M393 384l348 336q16 15 16 36t-15.5 36t-37.5 15t-37 -15l-385 -372q-15 -15 -15 -36t15 -36l385 -372q15 -15 37 -15t37.5 15t15.5 36t-16 36l-348 336v0z" />
    <glyph glyph-name="31fanhui2" unicode="&#xe632;" 
d="M630 384l-348 -336q-15 -15 -15 -36t15 -36t37 -15t37 15l385 372q16 15 16 36t-16 36l-385 372q-15 15 -37 15t-37 -15t-15 -36t15 -36l348 -336v0z" />
    <glyph glyph-name="servicehaiwaizhiyou" unicode="&#xe620;" 
d="M512 731q-117 0 -216 -58t-157 -157t-58 -216t58 -216t157 -157t216 -58t216 58t157 157t58 216t-58 216t-157 157t-216 58zM512 -75q-102 0 -188.5 50t-136.5 136.5t-50 188.5t50 188.5t136.5 136.5t188.5 50t188.5 -50t136.5 -136.5t50 -188.5t-50 -188.5
t-136.5 -136.5t-188.5 -50zM681.5 515q-26.5 0 -44.5 -19l-72 -71l-181 27q-16 2 -29 -8l-20 -14q-11 -8 -10.5 -22.5t13.5 -20.5l120 -68h0.5h0.5l-55 -56l-87 4q-12 0 -21 -8l-10 -11q-9 -8 -6.5 -20.5t13.5 -17.5l101 -47l46 -100q5 -12 18 -14h4v0q10 0 17 7l10 10
q9 9 9 22l-4 83l56 57v-1l68 -121q7 -12 21 -13h1q13 0 21 11l15 20q9 13 7 29l-27 183l70 70q19 19 19 45t-18.5 45t-45 19zM368 410l8 6q1 1 3 1l155 -23l-51 -52q-3 5 -7 8zM647 144l-6 -8l-60 108q-3 5 -8 8l52 53l23 -157q0 -2 -1 -4zM701 431l-232 -234q-9 -7 -11 -12
v-5l4 -80l-39 84q-2 5 -9 9l-84 38l80 -4q8 0 13 6l239 238q8 8 20 8t19 -8q9 -8 9 -19.5t-9 -20.5zM512 732q-117 0 -216.5 -58t-157.5 -157.5t-58 -216.5t58 -216.5t157.5 -157.5t216.5 -58t216.5 58t157.5 157.5t58 216.5t-58 216.5t-157.5 157.5t-216.5 58zM512 -76
q-102 0 -188.5 50.5t-137 137t-50.5 188.5t50.5 188.5t137 137t188.5 50.5t188.5 -50.5t137 -137t50.5 -188.5t-50.5 -188.5t-137 -137t-188.5 -50.5z" />
    <glyph glyph-name="servicejiayipeisan" unicode="&#xe61d;" 
d="M313.5 189q8.5 0 14 5.5t5.5 13.5v255h83v-255q0 -8 5.5 -13.5t14 -5.5t14 5.5t5.5 13.5v271v1.5v0.5v1v1q0 8 -5.5 14t-13.5 6h-122q-9 0 -14.5 -6t-5.5 -14v-1v-1v-0.5v-1.5v-271q0 -8 5.5 -13.5t14 -5.5zM390 215q-1 0 -1.5 0.5l-0.5 0.5q5 24 6 38v171q0 8 -5.5 13.5
t-14 5.5t-14 -5.5t-5.5 -13.5v-169q0 -4 -1.5 -12t-6.5 -27t-12 -36.5t-21 -37.5t-31 -33q-7 -4 -8.5 -12t3.5 -15q6 -8 16 -8q6 0 12 3q44 32 68 94l77 -91q6 -6 16 -6q7 0 12 4q7 6 7.5 14t-4.5 14zM505 426h216q8 0 14 6t6 14t-6 14t-14 6h-80q0 3 -2 5l-21 42
q-4 7 -11.5 9.5t-15 -1.5t-10 -11.5t1.5 -15.5l15 -28h-93q-8 0 -14 -6t-6 -14t6 -14t14 -6zM738 326h-67l36 58q4 7 2 15t-9 12.5t-15 2.5t-12 -9l-42 -68q-2 -4 -2 -11h-144q-8 0 -14 -5.5t-6 -14t6 -14t14 -5.5h253q8 0 13.5 5.5t5.5 14t-5.5 14t-13.5 5.5zM529 411.5
q-7 -4.5 -9 -12.5t3 -15l23 -36q6 -10 17 -10q5 0 10 4q7 4 9 12t-3 15l-23 36q-4 7 -12 9t-15 -2.5zM701 241h-183q-8 0 -14 -6t-6 -14v-123q0 -9 6 -14.5t14 -5.5h183q8 0 14 5.5t6 14.5v123q0 8 -6 14t-14 6zM681 117h-143v84h143v-84zM512 732q-88 0 -168.5 -34
t-138.5 -92t-92 -138.5t-34 -168.5t34 -168.5t92 -138.5t138.5 -92t168.5 -34t168.5 34t138.5 92t92 138.5t34 168.5t-34 168.5t-92 138.5t-138.5 92t-168.5 34zM512 -79q-102 0 -189 51t-138 138t-51 189t51 189t138 138t189 51t189 -51t138 -138t51 -189t-51 -189
t-138 -138t-189 -51z" />
    <glyph glyph-name="servicequanqiutongjia" unicode="&#xe61e;" 
d="M512 732q-88 0 -168 -34.5t-138 -92.5t-92.5 -138t-34.5 -168t34.5 -168t92.5 -138t138 -92.5t168 -34.5t168 34.5t138 92.5t92.5 138t34.5 168t-34.5 168t-92.5 138t-138 92.5t-168 34.5zM512 -78q-102 0 -189 50.5t-137.5 137.5t-50.5 189t50.5 189t137.5 137.5
t189 50.5t189 -50.5t137.5 -137.5t50.5 -189t-50.5 -189t-137.5 -137.5t-189 -50.5zM558 308l-12 3l-40 10q-55 13 -72 22.5t-17 33.5q0 29 26.5 47t56.5 18q42 0 71 -15.5t35 -42.5l1 -2v0q4 -15 19 -15q9 0 15 6t6 15q0 5 -2 10q-18 69 -109 81v0l-1 1h-6v41v3v0
q-2 13 -15.5 13t-15.5 -13v-42l-13 -1q-46 -5 -81 -31.5t-35 -73.5q0 -24 8.5 -41t25 -28t33 -17.5t41.5 -13.5q11 -2 26 -6q20 -5 30.5 -8t27 -9.5t24.5 -13t14.5 -17.5t6.5 -25q0 -59 -92 -64q-99 -6 -115 71l-1 2q-3 17 -20 17t-21 -17v0v-4q0 -4 2 -9q7 -43 39 -69.5
t84 -31.5l13 -2v-38v-3v0q3 -13 16.5 -13t16.5 13v0v41l13 1q57 6 89 36.5t32 79.5q0 21 -8 38.5t-18 27t-27 18t-26.5 11t-24.5 6.5z" />
    <glyph glyph-name="servicehaiwaizhiyou1" unicode="&#xe621;" 
d="M697 531q-26 0 -45 -18l-71 -72l-181 27q-16 3 -30 -7l-19 -14q-12 -9 -11 -23t13 -21l121 -67l0.5 -0.5l0.5 -0.5l-56 -55l-86 4q-12 0 -21 -9l-10 -10q-9 -9 -7 -21t14 -18l100 -46l47 -101q5 -11 17 -13q2 -1 4 -1v0q10 0 17 7l11 11q9 9 8 22l-4 83l56 57q0 -1 1 -1
l68 -121q6 -12 20 -13h2q13 0 21 10l14 20q10 13 8 29l-28 184l71 70q18 19 18 45t-18.5 44.5t-44.5 18.5zM383 427l8 6h4l155 -23l-52 -51q-2 5 -7 7zM663 161l-6 -8l-60 108q-3 5 -9 7l52 53l24 -157q0 -1 -1 -3zM717 448l-233 -235q-9 -7 -10 -11l-1 -5l4 -80l-38 84
q-3 5 -9 8l-84 39l80 -4q8 0 13 5l238 239q8 8 20 8t20 -8t8 -20t-8 -20zM527.5 748q-117.5 0 -216.5 -57.5t-157 -157t-58 -216.5t58 -216.5t157 -157.5t216.5 -58t217 58t157 157.5t57.5 216.5t-57.5 216.5t-157 157t-217 57.5zM528 -59q-102 0 -189 50t-137.5 137
t-50.5 189t50.5 188.5t137.5 137t189 50.5t188.5 -50.5t137 -137t50.5 -188.5t-50.5 -189t-137 -137t-188.5 -50z" />
    <glyph glyph-name="servicewuyoutuihuanhuo" unicode="&#xe61f;" 
d="M662 229l21 31q5 8 3 17.5t-10 14t-17.5 1.5t-14.5 -11l-20 -31l-0.5 -1l-0.5 -1l-55 43q-7 6 -16 6q-10 0 -17 -7q-6 -7 -4.5 -16.5t9.5 -16.5l126 -100q8 -6 17.5 -5.5t15.5 7.5t4.5 16.5t-8.5 15.5l-39 30q4 4 6 7zM490.5 155q9.5 0 16.5 7.5t7 17.5v138h168q6 0 11 2
q16 6 16 25v147q0 18 -15 24q-6 2 -12 2l-189 1h-1v0h-0.5h-0.5q-9 0 -16 -7v0v0l-1 -1q-7 -7 -7 -16v-0.5v-0.5v-0.5v-0.5v-313q0 -10 7 -17.5t16.5 -7.5zM514 472v0h149v-31h-149v31zM514 394v0h149v-29h-149v29zM354 435q3 -9 11.5 -13.5t17 -1.5t12.5 12t0 18l-20 54
q-6 17 -22 17q-4 0 -7 -1q-9 -3 -12.5 -12t-0.5 -19zM732 132h-335v2v222q0 17 -15 23q-6 3 -13 3h-50q-11 0 -18.5 -6.5t-7.5 -16.5t7.5 -16.5t18.5 -6.5h34v-202v-2h-27q-10 0 -17 -6.5t-7 -15.5t7 -15.5t17 -6.5h406q10 0 17 6.5t7 15.5t-7 15.5t-17 6.5zM527.5 750
q-87.5 0 -168 -34.5t-138.5 -92.5t-92 -138t-34 -168t34 -168.5t92 -138.5t138.5 -92t168 -34t168 34t138.5 92t92 138.5t34 168.5t-34 168t-92 138t-138.5 92.5t-168 34.5zM527.5 -60q-102.5 0 -189 50.5t-137 137.5t-50.5 189t50.5 188.5t137 137t189 50.5t189 -50.5
t137 -137t50.5 -188.5t-50.5 -189t-137 -137.5t-189 -50.5z" />
    <glyph glyph-name="14" unicode="&#xe62f;" 
d="M512 -148q-91 0 -174 35.5t-143 95.5t-95.5 143t-35.5 174t35.5 174t95.5 143t143 95.5t174 35.5t174 -35.5t143 -95.5t95.5 -143t35.5 -174t-35.5 -174t-95.5 -143t-143 -95.5t-174 -35.5zM512 713q-112 0 -207 -55.5t-150.5 -150.5t-55.5 -207t55.5 -207t150.5 -150.5
t207 -55.5t207 55.5t150.5 150.5t55.5 207t-55.5 207t-150.5 150.5t-207 55.5zM288 320h448v-40h-448v40z" />
    <glyph glyph-name="youjiantou" unicode="&#xe630;" 
d="M366 7v586l292 -293z" />
    <glyph glyph-name="bi" unicode="&#xe629;" 
d="M648 766l242 -241l-463 -463l-241 242zM745 863l241 -242l-72 -72l-242 241zM161 279l242 -241l-338 -97zM838 866l151 -151q19 -19 18 -46.5t-21 -47.5t-47.5 -20.5t-45.5 17.5l-151 151q-19 19 -18 46.5t21 47.5t47.5 20.5t45.5 -17.5z" />
    <glyph glyph-name="meilihui" unicode="&#xe62a;" horiz-adv-x="2994" 
d="M737 -8v496l146 -439h65l-145 439h145v66h-211v166h159v66h-159v105h-66v-105h-157v-66h158v-167h-212v233h-197v105h-66v-105h-105v1v-1h-2q-37 0 -63.5 -26.5t-26.5 -64.5v-344q0 -38 26.5 -65t63.5 -27h40l-128 -386h69l127 386v-293v0q0 -39 27 -66t66 -27h657v66
h-662q-9 0 -15.5 6.5t-7.5 16.5v298h197v228h146l-108 -322q-12 -36 -24.5 -48t-41.5 -12h-24l35 105h-64l-53 -162h129q32 0 58 19t33 48l124 373v-496h67v-1zM197 325h-105q-26 0 -26 27v134l132 2v-163h-1zM197 553h-131v145q0 8 6.5 15t14.5 7h110v-167zM395 325h-132
v162h132v-162zM395 553h-132v167h132v-167zM1833 786h-280l34 105h-68l-35 -105h-400v-66h380l-253 -757q-8 -24 -26 -24h-101v-66h101q27 0 50 15.5t35 40.5l262 791h291q8 0 12.5 -0.5t11.5 -4t10.5 -13t3.5 -23.5v-806h66v822q-1 38 -28 64.5t-66 26.5zM2939 35
q-10 27 -33 42.5t-52 15.5q-64 0 -84 -53l-31 -87q-6 -14 -22 -14h-382l44 133h-70l-64 -199h472q30 0 54 18.5t33 46.5l25 72q6 20 25 20q16 0 23 -21l45 -137h71zM2456 136l47 -144h68l-48 144h321q3 0 7.5 0.5t19 2.5t27.5 5.5t29.5 13t29.5 22t23 33.5t13 47h-66v-3
q-4 -21 -27 -37.5t-56 -16.5h-263v57h224q37 0 63.5 25.5t27.5 61.5v223q0 39 -27.5 66t-64.5 27h-4h-219v57h404v66h-404v105h-67v-105h-404v-66h404v-57h-315v-403h315v-57h-404v-67h88l-88 -263h69l86 263h191zM2581 597h220v0h3q11 0 18.5 -9t7.5 -20v-75h-251v104h2z
M2581 428h250v-80q0 -9 -7.5 -16t-17.5 -7h-224v103h-1zM2264 597h250v-104h-250v104zM2264 325v103h250v-103h-250z" />
  </font>
</defs>
</svg>
