<?xml version="1.0" encoding="utf-8"?>
<!-- Generator: Adobe Illustrator 21.0.0, SVG Export Plug-In . SVG Version: 6.00 Build 0)  -->
<svg version="1.1" id="图层_1" xmlns="http://www.w3.org/2000/svg" xmlns:xlink="http://www.w3.org/1999/xlink" x="0px" y="0px"
	 viewBox="0 0 26 26" style="enable-background:new 0 0 26 26;" xml:space="preserve">
<style type="text/css">
	.st0{fill:#FFFFFF;}
</style>
<title>Combined Shape</title>
<desc>Created with Sketch.</desc>
<g id="Page-1">
	<g id="商家页" transform="translate(-794.000000, -1528.000000)">
		<g id="Group-29" transform="translate(784.000000, 1516.000000)">
			<g id="Group-31-Copy" transform="translate(10.000000, 7.000000)">
				<path id="Combined-Shape" class="st0" d="M5.5,5.6C5.5,5.6,5.5,5.6,5.5,5.6c0.7,0,1.2,0.4,1.3,1L7,9.3c0.2,0,0.3-0.1,0.5-0.1
					h16.2c1,0,1.7,0.8,1.5,1.8l-1.3,9c-0.1,1-1.1,1.8-2,1.8H8.1l0.1,1.4h14.4c0.6,0,1.2,0.5,1.3,1.1l0,0.1c0.1,0.6-0.3,1.1-0.9,1.1
					H7.3c-0.3,0-0.7-0.2-0.9-0.4c-0.2-0.2-0.3-0.4-0.4-0.7L4.6,7.9H1.9c-0.6,0-1.1-0.5-1.1-1.1c0-0.6,0.5-1.1,1.1-1.1L5.5,5.6
					C5.5,5.6,5.5,5.6,5.5,5.6z M8.4,30.4c-1,0-1.8-0.8-1.8-1.8s0.8-1.8,1.8-1.8s1.8,0.8,1.8,1.8S9.4,30.4,8.4,30.4z M21.9,30.4
					c-1,0-1.8-0.8-1.8-1.8s0.8-1.8,1.8-1.8s1.8,0.8,1.8,1.8S22.9,30.4,21.9,30.4z M9.7,13.7v3.6c0,0.5,0.4,0.9,0.9,0.9
					c0.5,0,0.9-0.4,0.9-0.9v-3.6c0-0.5-0.4-0.9-0.9-0.9C10.1,12.8,9.7,13.2,9.7,13.7z M14.2,13.7v3.6c0,0.5,0.4,0.9,0.9,0.9
					c0.5,0,0.9-0.4,0.9-0.9v-3.6c0-0.5-0.4-0.9-0.9-0.9C14.6,12.8,14.2,13.2,14.2,13.7z M18.7,13.7v3.6c0,0.5,0.4,0.9,0.9,0.9
					c0.5,0,0.9-0.4,0.9-0.9v-3.6c0-0.5-0.4-0.9-0.9-0.9C19.1,12.8,18.7,13.2,18.7,13.7z"/>
			</g>
		</g>
	</g>
</g>
</svg>
