<?xml version="1.0" encoding="utf-8"?>
<!-- Generator: Adobe Illustrator 21.0.0, SVG Export Plug-In . SVG Version: 6.00 Build 0)  -->
<svg version="1.1" id="图层_1" xmlns="http://www.w3.org/2000/svg" xmlns:xlink="http://www.w3.org/1999/xlink" x="0px" y="0px"
	 viewBox="0 0 28 28" style="enable-background:new 0 0 28 28;" xml:space="preserve">
<style type="text/css">
	.st0{fill:#FFDE90;}
</style>
<g>
	<path id="path-1" d="M14,2c6.6,0,12,5.4,12,12s-5.4,12-12,12S2,20.6,2,14S7.4,2,14,2 M14,1C6.8,1,1,6.8,1,14s5.8,13,13,13
		s13-5.8,13-13S21.2,1,14,1L14,1z"/>
</g>
<g>
	<g id="path-3">
		<polygon class="st0" points="14,18.7 10.2,20.2 10.4,16 7.9,12.6 11.8,11.5 14,8 16.2,11.5 20.1,12.6 17.6,16 17.8,20.2 		"/>
		<path d="M14,8.9l1.7,2.7l0.2,0.3l0.4,0.1l3.1,0.8l-2,2.6L17,15.8l0,0.4l0.2,3.3l-2.9-1.2L14,18.2l-0.4,0.2l-2.9,1.2l0.2-3.3l0-0.4
			l-0.2-0.3l-2-2.6l3.1-0.8l0.4-0.1l0.2-0.3L14,8.9 M14,7l-2.5,4.1L7,12.3l2.9,3.8L9.7,21l4.3-1.8l4.3,1.8l-0.3-4.9l2.9-3.8
			l-4.5-1.2L14,7L14,7z"/>
	</g>
</g>
</svg>
