<?xml version="1.0" encoding="utf-8"?>
<!-- Generator: Adobe Illustrator 21.0.0, SVG Export Plug-In . SVG Version: 6.00 Build 0)  -->
<svg version="1.1" id="图层_1" xmlns="http://www.w3.org/2000/svg" xmlns:xlink="http://www.w3.org/1999/xlink" x="0px" y="0px"
	 viewBox="0 0 28 24" style="enable-background:new 0 0 28 24;" xml:space="preserve">
<style type="text/css">
	.st0{fill:#2A2A2A;}
</style>
<title>Shape</title>
<desc>Created with Sketch.</desc>
<path class="st0" d="M14.1,23C14,23,14,23,14.1,23c-1.2-0.1-4.8-2.7-7.3-5.1C3.1,14.2,1,10.8,1,8.1C1,4.2,4.3,1,8.3,1
	c2.2,0,4.3,1,5.7,2.7l0,0C15.4,2,17.5,1,19.7,1c4,0,7.3,3.3,7.3,7.3c0,2.5-2.1,5.9-5.9,9.6C18.9,20,15.2,23,14.1,23z M8.3,2
	C4.8,2,2,4.7,2,8.1c0,2.4,2,5.7,5.5,9.1c3,2.9,6,4.8,6.6,4.8c0.5-0.1,3.5-2.1,6.4-4.9C24,13.7,26,10.4,26,8.3C26,4.9,23.1,2,19.7,2
	c-1.9,0-3.7,0.8-4.9,2.3L14,5.3l-0.8-0.9C12,2.8,10.2,2,8.3,2z"/>
</svg>
