<?xml version="1.0" encoding="utf-8"?>
<!-- Generator: Adobe Illustrator 21.0.0, SVG Export Plug-In . SVG Version: 6.00 Build 0)  -->
<svg version="1.1" id="图层_1" xmlns="http://www.w3.org/2000/svg" xmlns:xlink="http://www.w3.org/1999/xlink" x="0px" y="0px"
	 viewBox="0 0 20 20" style="enable-background:new 0 0 20 20;" xml:space="preserve">
<style type="text/css">
	.st0{fill:#FFFFFF;}
</style>
<path class="st0" d="M10,1c-5,0-9,4-9,9s4,9,9,9s9-4,9-9S15,1,10,1z M13.1,15C10,15,5,9.7,5,7C5,6,6.4,5,6.9,5
	c0.6,0,1.9,2.3,1.9,2.7c0,0.5-0.5,0.8-0.5,1.3c0,0.5,2,2.6,2.5,2.6c0.5,0,0.8-0.5,1.4-0.5c0.5,0,2.7,1.6,2.7,2
	C15,14.1,13.9,15,13.1,15z"/>
</svg>
